<?xml version="1.0" encoding="UTF-8" standalone="no"?>
<!DOCTYPE svg PUBLIC "-//W3C//DTD SVG 1.1//EN"
 "http://www.w3.org/Graphics/SVG/1.1/DTD/svg11.dtd">
<!-- Generated by graphviz version 2.40.1 (20161225.0304)
 -->
<!-- Title: state transitions Pages: 1 -->
<svg width="149pt" height="282pt"
 viewBox="0.00 0.00 149.00 282.00" xmlns="http://www.w3.org/2000/svg" xmlns:xlink="http://www.w3.org/1999/xlink">
<g id="graph0" class="graph" transform="scale(1 1) rotate(0) translate(4 278)">
<title>state transitions</title>
<polygon fill="#ffffff" stroke="transparent" points="-4,4 -4,-278 145,-278 145,4 -4,4"/>
<g id="clust1" class="cluster state regular">
<title>cluster_next_state</title>
<path fill="none" stroke="#000000" stroke-width="2" d="M20,-8C20,-8 121,-8 121,-8 127,-8 133,-14 133,-20 133,-20 133,-254 133,-254 133,-260 127,-266 121,-266 121,-266 20,-266 20,-266 14,-266 8,-260 8,-254 8,-254 8,-20 8,-20 8,-14 14,-8 20,-8"/>
<text text-anchor="start" x="43.3208" y="-247.2" font-family="Helvetica,sans-Serif" font-size="12.00" fill="#000000">next_state</text>
</g>
<!-- next_state -->
<!-- IDLE -->
<g id="node2" class="node state regular">
<title>IDLE</title>
<polygon fill="#ffffff" fill-opacity="0.003922" stroke="transparent" stroke-width="2" points="82,-228 26,-228 26,-192 82,-192 82,-228"/>
<text text-anchor="start" x="40.6644" y="-206.2" font-family="Helvetica,sans-Serif" font-size="12.00" fill="#000000">IDLE</text>
<path fill="none" stroke="#000000" stroke-width="2" d="M38.3333,-193C38.3333,-193 69.6667,-193 69.6667,-193 75.3333,-193 81,-198.6667 81,-204.3333 81,-204.3333 81,-215.6667 81,-215.6667 81,-221.3333 75.3333,-227 69.6667,-227 69.6667,-227 38.3333,-227 38.3333,-227 32.6667,-227 27,-221.3333 27,-215.6667 27,-215.6667 27,-204.3333 27,-204.3333 27,-198.6667 32.6667,-193 38.3333,-193"/>
</g>
<!-- FETCH -->
<g id="node3" class="node state regular">
<title>FETCH</title>
<polygon fill="#ffffff" fill-opacity="0.003922" stroke="transparent" stroke-width="2" points="77.5,-134 16.5,-134 16.5,-98 77.5,-98 77.5,-134"/>
<text text-anchor="start" x="27.505" y="-112.2" font-family="Helvetica,sans-Serif" font-size="12.00" fill="#000000">FETCH</text>
<path fill="none" stroke="#000000" stroke-width="2" d="M28.8333,-99C28.8333,-99 65.1667,-99 65.1667,-99 70.8333,-99 76.5,-104.6667 76.5,-110.3333 76.5,-110.3333 76.5,-121.6667 76.5,-121.6667 76.5,-127.3333 70.8333,-133 65.1667,-133 65.1667,-133 28.8333,-133 28.8333,-133 23.1667,-133 17.5,-127.3333 17.5,-121.6667 17.5,-121.6667 17.5,-110.3333 17.5,-110.3333 17.5,-104.6667 23.1667,-99 28.8333,-99"/>
</g>
<!-- IDLE&#45;&gt;FETCH -->
<g id="edge1" class="edge transition">
<title>IDLE&#45;&gt;FETCH</title>
<path fill="none" stroke="#000000" d="M52.6503,-191.8759C51.6432,-178.3516 50.2482,-159.6192 49.0964,-144.1514"/>
<polygon fill="#000000" stroke="#000000" points="52.5786,-143.7809 48.3455,-134.0685 45.5979,-144.3008 52.5786,-143.7809"/>
<text text-anchor="start" x="51" y="-166" font-family="Helvetica,sans-Serif" font-size="10.00" fill="#000000">!hit &#160;&#160;</text>
<text text-anchor="start" x="51" y="-154" font-family="Helvetica,sans-Serif" font-size="10.00" fill="#000000">valid &#160;&#160;</text>
</g>
<!-- UPDATE -->
<g id="node4" class="node state regular">
<title>UPDATE</title>
<polygon fill="#ffffff" fill-opacity="0.003922" stroke="transparent" stroke-width="2" points="106,-52 36,-52 36,-16 106,-16 106,-52"/>
<text text-anchor="start" x="46.6676" y="-30.2" font-family="Helvetica,sans-Serif" font-size="12.00" fill="#000000">UPDATE</text>
<path fill="none" stroke="#000000" stroke-width="2" d="M48.3333,-17C48.3333,-17 93.6667,-17 93.6667,-17 99.3333,-17 105,-22.6667 105,-28.3333 105,-28.3333 105,-39.6667 105,-39.6667 105,-45.3333 99.3333,-51 93.6667,-51 93.6667,-51 48.3333,-51 48.3333,-51 42.6667,-51 37,-45.3333 37,-39.6667 37,-39.6667 37,-28.3333 37,-28.3333 37,-22.6667 42.6667,-17 48.3333,-17"/>
</g>
<!-- FETCH&#45;&gt;UPDATE -->
<g id="edge2" class="edge transition">
<title>FETCH&#45;&gt;UPDATE</title>
<path fill="none" stroke="#000000" d="M52.3264,-97.8015C55.4025,-87.2915 59.3365,-73.8503 62.7997,-62.0177"/>
<polygon fill="#000000" stroke="#000000" points="66.2385,-62.7281 65.6885,-52.1476 59.5204,-60.7618 66.2385,-62.7281"/>
<text text-anchor="start" x="60" y="-72" font-family="Helvetica,sans-Serif" font-size="10.00" fill="#000000">HREADY &#160;&#160;</text>
</g>
<!-- UPDATE&#45;&gt;IDLE -->
<g id="edge3" class="edge transition">
<title>UPDATE&#45;&gt;IDLE</title>
<path fill="none" stroke="#000000" d="M106.1428,-49.446C114.9768,-55.7789 122,-64.2074 122,-75 122,-163 122,-163 122,-163 122,-180.1551 107.1732,-191.537 91.3662,-198.7968"/>
<polygon fill="#000000" stroke="#000000" points="89.9812,-195.5818 82.0508,-202.6074 92.6315,-202.0607 89.9812,-195.5818"/>
<text text-anchor="middle" x="123.3895" y="-113" font-family="Helvetica,sans-Serif" font-size="10.00" fill="#000000"> </text>
</g>
</g>
</svg>
